Coordinates
version=1
nRows=16
nColumns=24
inDegrees=yes

Units are S.I. units (second, meters, Newtons, ...)
If the header above contains a line with 'inDegrees', this indicates whether rotational values are in degrees (yes) or radians (no).

endheader
time	pelvis_tilt	pelvis_list	pelvis_rotation	pelvis_tx	pelvis_ty	pelvis_tz	hip_flexion_r	hip_adduction_r	hip_rotation_r	knee_angle_r	ankle_angle_r	subtalar_angle_r	mtp_angle_r	hip_flexion_l	hip_adduction_l	hip_rotation_l	knee_angle_l	ankle_angle_l	subtalar_angle_l	mtp_angle_l	lumbar_extension	lumbar_bending	lumbar_rotation
5.100000	11.712378	2.247480	-179.404953	0.240180	0.849421	-1.209691	19.902128	-10.694597	-35.563057	-14.269813	0.166451	12.650555	0.000000	22.143343	-16.603221	-30.002772	-17.450244	1.514080	15.074210	0.000000	2.345062	3.251430	2.062362
5.105000	11.687655	2.276892	-179.389692	0.239798	0.849558	-1.209656	19.792979	-10.644502	-35.673897	-14.158796	0.131347	12.722373	0.000000	22.040957	-16.604985	-30.058684	-17.330418	1.464864	15.086391	0.000000	2.375027	3.285457	2.052765
5.110000	11.665661	2.274325	-179.346202	0.239471	0.849645	-1.209668	19.686431	-10.634312	-35.768910	-14.056023	0.109648	12.798913	0.000000	21.964630	-16.572329	-30.081481	-17.245319	1.465881	15.133179	0.000000	2.404466	3.271208	2.000268
5.115000	11.609531	2.277111	-179.306684	0.239101	0.849733	-1.209691	19.559693	-10.636586	-35.918566	-14.005406	0.141446	12.937756	0.000000	21.848659	-16.555051	-30.157590	-17.170718	1.502650	15.213209	0.000000	2.403460	3.262811	1.978600
5.120000	11.610726	2.262173	-179.264480	0.238807	0.849797	-1.209672	19.498888	-10.644345	-35.955411	-13.930737	0.115161	12.964226	0.000000	21.801197	-16.502332	-30.158959	-17.085194	1.497421	15.241301	0.000000	2.457956	3.234950	1.942328
5.125000	11.588467	2.283890	-179.245513	0.238507	0.849915	-1.209686	19.435014	-10.616657	-36.008540	-13.898593	0.116103	12.978985	0.000000	21.733403	-16.505416	-30.179672	-17.014076	1.447499	15.228988	0.000000	2.482430	3.249340	1.941604
5.130000	11.591014	2.288937	-179.236712	0.238237	0.849986	-1.209663	19.414076	-10.610624	-36.021971	-13.891054	0.132292	12.976303	0.000000	21.698864	-16.494624	-30.192326	-16.968555	1.452888	15.224500	0.000000	2.536564	3.255655	1.933655
5.135000	11.550974	2.288892	-179.218995	0.237936	0.850060	-1.209666	19.343729	-10.611302	-36.061063	-13.888062	0.156463	12.965345	0.000000	21.621048	-16.480275	-30.185707	-16.928509	1.429376	15.210710	0.000000	2.542000	3.248473	1.925580
5.140000	11.511342	2.270887	-179.204131	0.237660	0.850099	-1.209673	19.277745	-10.628726	-36.057820	-13.883905	0.151532	12.968634	0.000000	21.549936	-16.448648	-30.173186	-16.909856	1.476534	15.199276	0.000000	2.551716	3.226928	1.912546
5.145000	11.487971	2.259139	-179.182708	0.237389	0.850116	-1.209691	19.230865	-10.643330	-36.075847	-13.885715	0.159480	12.954576	0.000000	21.509089	-16.429470	-30.167227	-16.910427	1.502106	15.192896	0.000000	2.578439	3.204352	1.898234
5.150000	11.447743	2.263414	-179.170443	0.237125	0.850174	-1.209743	19.183565	-10.644776	-36.070057	-13.921492	0.199320	12.936219	0.000000	21.456395	-16.432365	-30.139363	-16.914104	1.519730	15.182496	0.000000	2.579287	3.200148	1.885279
5.155000	11.420820	2.271604	-179.175134	0.236880	0.850231	-1.209755	19.158944	-10.644449	-36.055663	-13.967236	0.231839	12.919514	0.000000	21.414335	-16.441830	-30.126188	-16.917231	1.530976	15.164051	0.000000	2.595285	3.209464	1.894851
5.160000	11.380224	2.284896	-179.173664	0.236629	0.850297	-1.209796	19.115701	-10.634832	-36.044283	-14.002709	0.274899	12.897419	0.000000	21.373952	-16.466320	-30.120335	-16.954189	1.537029	15.124185	0.000000	2.597685	3.216345	1.904199
5.165000	11.339118	2.292821	-179.152725	0.236397	0.850313	-1.209871	19.054946	-10.622235	-36.008967	-14.007789	0.302616	12.864480	0.000000	21.330261	-16.468383	-30.044144	-16.967223	1.610337	15.089933	0.000000	2.598885	3.210164	1.874901
5.170000	11.304986	2.290147	-179.143163	0.236228	0.850313	-1.209982	19.021614	-10.627996	-35.991412	-14.048388	0.302508	12.844665	0.000000	21.305446	-16.480152	-30.018256	-17.013726	1.613650	15.079051	0.000000	2.603117	3.191981	1.864890
5.175000	11.252854	2.294397	-179.144075	0.235996	0.850329	-1.210032	18.972007	-10.627392	-35.964257	-14.096996	0.361019	12.775637	0.000000	21.239207	-16.489015	-29.986224	-17.012754	1.682682	15.059517	0.000000	2.591309	3.204116	1.831663
